HIERARCHY
ROOT mixamorig:Hips
{
  OFFSET 0.000000 0.000000 0.000000
  CHANNELS 6 Xposition Yposition Zposition Xrotation Yrotation Zrotation
  JOINT mixamorig:Spine
  {
    OFFSET 0.384862 23.362435 -6.545746
    CHANNELS 3 Xrotation Yrotation Zrotation
    JOINT mixamorig:Spine2
    {
      OFFSET 0.384862 23.362435 -6.545746
      CHANNELS 3 Xrotation Yrotation Zrotation
      JOINT mixamorig:Neck
      {
        OFFSET 0.000000 3.494450 0.000000
        CHANNELS 3 Xrotation Yrotation Zrotation
        JOINT mixamorig:Head
        {
          OFFSET 0.000000 3.104519 0.000000
          CHANNELS 3 Xrotation Yrotation Zrotation
          End Site
          {
            OFFSET 0.000000 0.931356 0.000000
          }
        }
      }
      JOINT mixamorig:LeftShoulder
      {
        OFFSET 16.753096 1.874518 -2.350806
        CHANNELS 3 Xrotation Yrotation Zrotation
        JOINT mixamorig:LeftArm
        {
          OFFSET 9.215470 -17.927143 -6.750691
          CHANNELS 3 Xrotation Yrotation Zrotation
          JOINT mixamorig:LeftForeArm
          {
            OFFSET -8.631796 -1.807562 -13.626102
            CHANNELS 3 Xrotation Yrotation Zrotation
            JOINT mixamorig:LeftHand
            {
              OFFSET -3.581741 1.574515 -2.219805
              CHANNELS 3 Xrotation Yrotation Zrotation
              End Site
              {
                OFFSET -1.074522 0.472355 -0.665942
              }
            }
          }
        }
      }
      JOINT mixamorig:RightShoulder
      {
        OFFSET -16.753096 1.874518 2.350806
        CHANNELS 3 Xrotation Yrotation Zrotation
        JOINT mixamorig:RightArm
        {
          OFFSET -4.024878 -26.092607 -12.467419
          CHANNELS 3 Xrotation Yrotation Zrotation
          JOINT mixamorig:RightForeArm
          {
            OFFSET 6.746233 1.826222 -21.720462
            CHANNELS 3 Xrotation Yrotation Zrotation
            JOINT mixamorig:RightHand
            {
              OFFSET 4.773503 3.298478 -5.155945
              CHANNELS 3 Xrotation Yrotation Zrotation
              End Site
              {
                OFFSET 1.432051 0.989543 -1.546783
              }
            }
          }
        }
      }
    }
  }
  JOINT mixamorig:LeftUpLeg
  {
    OFFSET 9.108096 0.180174 1.189578
    CHANNELS 3 Xrotation Yrotation Zrotation
    JOINT mixamorig:LeftLeg
    {
      OFFSET 8.006705 -41.225060 -10.059709
      CHANNELS 3 Xrotation Yrotation Zrotation
      JOINT mixamorig:LeftFoot
      {
        OFFSET 3.400898 -37.290034 11.365810
        CHANNELS 3 Xrotation Yrotation Zrotation
        JOINT mixamorig:LeftToeBase
        {
          OFFSET 2.883568 -4.422998 -6.372284
          CHANNELS 3 Xrotation Yrotation Zrotation
          End Site
          {
            OFFSET 0.865071 -1.326900 -1.911685
          }
        }
      }
    }
  }
  JOINT mixamorig:RightUpLeg
  {
    OFFSET -9.108096 -0.180174 -1.189578
    CHANNELS 3 Xrotation Yrotation Zrotation
    JOINT mixamorig:RightLeg
    {
      OFFSET -2.107032 -32.214779 1.747249
      CHANNELS 3 Xrotation Yrotation Zrotation
      JOINT mixamorig:RightFoot
      {
        OFFSET -3.136493 -41.782707 15.884636
        CHANNELS 3 Xrotation Yrotation Zrotation
        JOINT mixamorig:RightToeBase
        {
          OFFSET -9.692626 -1.266161 -8.277397
          CHANNELS 3 Xrotation Yrotation Zrotation
          End Site
          {
            OFFSET -2.907788 -0.379848 -2.483219
          }
        }
      }
    }
  }
}
MOTION
Frames: 12
Frame Time: 0.083333
0.114321 0.167816 0.185068 11.475646 -1.023103 -4.848885 0.000000 0.000000 0.000000 -15.698041 -1.130525 4.894984 24.726216 7.122402 -7.759593 22.976288 10.863993 -5.312406 34.826771 -5.064605 32.252133 -26.629148 -13.416093 -35.398746 -19.994827 6.244305 13.908687 0.000000 0.000000 0.000000 7.336010 -0.384814 1.271675 12.439704 -1.679315 2.801232 -9.999218 0.824082 -0.173411 0.000000 0.000000 0.000000 7.466169 2.461317 12.026685 -6.253408 4.078266 7.279797 7.900428 17.126752 -19.531474 0.000000 0.000000 0.000000 -13.431991 -0.894608 -9.200961 -12.449844 -3.069970 10.446100 3.187497 11.811793 14.735142 0.000000 0.000000 0.000000
0.118922 0.156512 0.184300 12.288178 -1.339378 -6.819717 0.000000 0.000000 0.000000 -15.741780 -2.854949 6.784267 24.583903 8.462813 -7.461494 22.476441 12.137480 -4.381594 25.747845 0.894618 19.261431 -2.559228 -19.339800 -35.803797 -22.987395 3.209299 6.423613 0.000000 0.000000 0.000000 8.038464 -0.665640 3.969142 11.379442 -6.979690 -1.661272 -9.195753 4.470724 1.720868 0.000000 0.000000 0.000000 12.313674 4.116869 14.172295 -10.129783 3.708223 5.873003 1.322991 17.002274 -19.421468 0.000000 0.000000 0.000000 -7.229925 0.303870 -10.067543 -22.660233 -8.077215 9.360315 7.534757 14.309842 15.349510 0.000000 0.000000 0.000000
0.122582 0.144204 0.181636 12.424423 -1.419823 -7.339817 0.000000 0.000000 0.000000 -15.745166 -2.761620 7.318396 24.584265 7.991343 -7.004803 22.559155 11.446440 -4.077969 11.034234 4.437650 2.620480 30.852852 -21.168699 -25.882749 -30.527702 -1.819392 9.721386 0.000000 0.000000 0.000000 9.095263 -1.159547 3.946712 9.608088 -8.232198 -2.352855 -10.863515 5.917092 0.669670 0.000000 0.000000 0.000000 9.940508 4.162646 13.852890 -7.758045 3.213669 7.460669 -22.353743 14.705181 -29.668160 0.000000 0.000000 0.000000 3.458671 2.492586 -11.627331 -31.973141 -11.298722 11.357631 6.844896 21.477162 11.571723 0.000000 0.000000 0.000000
0.119343 0.137138 0.197520 12.585451 -1.321895 -6.786139 0.000000 0.000000 0.000000 -15.651169 2.763938 7.011817 24.398892 2.399417 -5.344849 23.064973 4.708635 -4.807406 6.188305 1.945888 -7.368062 28.375260 -21.949146 -8.405259 -20.440552 4.030356 0.465186 0.000000 0.000000 0.000000 4.693265 -3.550335 -0.446253 10.308935 1.879129 4.579006 -12.821224 -0.503650 -4.056734 0.000000 0.000000 0.000000 8.173769 4.302652 11.712042 -9.788453 2.998777 10.457596 -27.122384 16.396585 -37.398026 0.000000 0.000000 0.000000 -7.424425 -0.002009 -11.168865 -18.672979 -5.833999 14.520363 1.855682 25.628176 12.027973 0.000000 0.000000 0.000000
0.107770 0.137341 0.212874 12.405968 -1.039486 -4.991141 0.000000 0.000000 0.000000 -15.442931 15.187720 5.622465 25.811691 -9.273306 -1.951624 23.682860 -9.387401 -6.683407 7.681534 -7.252111 -9.069720 19.851652 -9.453618 -0.654122 -11.867495 -8.954686 -4.919468 0.000000 0.000000 0.000000 1.125240 -12.561606 -6.436352 11.496400 11.223893 12.642083 -10.595559 -6.349857 -2.484403 0.000000 0.000000 0.000000 7.406898 5.141264 6.417848 -16.314966 2.109106 14.693846 -22.363320 19.882599 -47.021278 0.000000 0.000000 0.000000 -10.775928 -0.592504 -11.614764 -12.113308 -2.961709 14.571152 0.199658 18.071399 11.172881 0.000000 0.000000 0.000000
0.087082 0.139884 0.212422 12.973493 -0.414673 -1.377587 0.000000 0.000000 -0.000000 -15.197911 27.774461 2.439512 30.185495 -19.436405 3.319439 23.063625 -22.985687 -7.372598 12.532150 -18.593693 -0.156642 10.004112 5.281015 -6.168282 -8.461354 -19.531580 -5.661918 0.000000 0.000000 0.000000 -2.576914 -25.152305 -6.335660 14.845563 17.442270 12.109951 -6.533790 -9.150657 3.488189 0.000000 0.000000 0.000000 5.237351 6.342002 -3.375711 -16.525123 -0.268268 24.539476 -24.857175 22.598722 -57.810024 0.000000 0.000000 0.000000 -14.226589 -0.780627 -14.377754 -4.845369 -0.160002 15.515645 -2.408416 18.328118 7.168016 0.000000 0.000000 0.000000
0.064405 0.144713 0.198416 12.256516 0.172098 2.243313 0.000000 0.000000 -0.000000 -15.071786 34.050785 -0.269531 35.783735 -23.678764 6.561447 22.869800 -29.660824 -9.123327 22.602647 -21.074858 9.413255 2.323585 13.236078 -11.922583 -7.151395 -23.840124 -4.858795 0.000000 0.000000 0.000000 -3.852855 -32.991650 -2.941706 14.450925 22.641515 4.467891 -3.137422 -8.773954 7.032998 0.000000 0.000000 0.000000 0.705694 5.631869 -10.626477 -9.663447 0.706522 33.915155 -24.161892 28.200886 -68.450692 0.000000 0.000000 0.000000 -17.682745 -0.416431 -16.275398 3.474688 2.194854 14.795355 -6.081881 20.969295 4.846901 0.000000 0.000000 0.000000
0.050350 0.149770 0.187424 12.676089 0.502612 4.290311 0.000000 0.000000 -0.000000 -15.053827 35.425355 -2.160402 38.537094 -25.561753 7.757657 22.374083 -32.590778 -10.713954 28.793031 -17.747860 13.160605 -3.376186 8.611463 -13.180554 -8.339636 -22.376425 -2.982087 0.000000 0.000000 0.000000 -3.409034 -35.620168 0.401606 12.186583 24.446751 -1.784350 -0.919802 -7.395770 8.678018 0.000000 0.000000 0.000000 -5.310749 4.008089 -12.749911 -0.320931 3.457144 37.886120 -23.575914 33.682301 -74.161815 0.000000 0.000000 0.000000 -22.287209 0.420627 -14.486676 10.204512 1.892618 8.613356 -8.551621 20.218048 6.804420 0.000000 0.000000 0.000000
0.052422 0.147171 0.190814 12.049561 0.507865 4.147454 0.000000 0.000000 -0.000000 -15.124061 32.031807 -1.891644 36.311787 -23.592988 5.600321 23.210084 -29.271467 -10.499627 28.284683 -15.234841 12.027343 -6.009839 2.553539 -11.856260 -9.706434 -15.628062 1.332577 0.000000 0.000000 0.000000 -1.482725 -32.845998 2.159091 8.254511 24.771995 -4.385177 0.660517 -6.678824 9.025675 0.000000 0.000000 0.000000 -5.392034 2.319795 -8.031131 2.148042 4.611606 30.719466 -16.485989 31.904546 -65.962200 0.000000 0.000000 0.000000 -25.790186 1.011190 -10.797900 11.814482 0.230402 2.758935 -5.088178 15.596422 8.827748 0.000000 0.000000 0.000000
0.061337 0.139468 0.182902 11.946401 0.131151 1.895948 -0.000000 0.000000 -0.000000 -15.288931 22.381399 -0.333714 31.490729 -15.314874 1.544506 23.188505 -17.980155 -8.267125 21.503042 -11.570933 7.980022 -6.017811 -10.684425 -8.936674 -11.574412 -0.586566 8.004810 0.000000 0.000000 0.000000 -0.539093 -21.781379 -1.046379 1.113400 14.977710 -2.300878 4.247682 -1.462282 8.309247 0.000000 0.000000 0.000000 -1.997016 0.409429 2.468941 0.730846 4.685697 14.767153 -5.361702 18.468426 -37.320728 0.000000 0.000000 0.000000 -30.197829 0.572784 -8.280899 8.570734 -0.878259 0.956829 3.044572 6.459941 12.124091 0.000000 0.000000 0.000000
0.070572 0.134309 0.148631 11.814664 -0.491751 -1.748184 -0.000000 0.000000 -0.000000 -15.614350 3.127103 1.976203 26.787710 4.140213 -5.636606 22.773347 6.697205 -3.330437 14.154865 2.552054 -0.018767 11.251462 -26.041935 -9.745826 -17.866929 9.357039 6.303778 0.000000 0.000000 0.000000 4.850386 -3.201499 -3.507659 -9.464032 -8.839754 -2.237497 6.335107 11.766948 5.599340 0.000000 0.000000 0.000000 2.942982 -0.431381 12.297367 -1.125420 4.572039 0.591964 3.115268 3.079032 -8.260736 0.000000 0.000000 0.000000 -31.842897 -1.001336 -6.082715 2.091965 -2.972134 -1.045755 8.960321 2.356861 19.090927 0.000000 0.000000 0.000000
0.079973 0.136293 0.111236 11.179140 -1.123691 -4.976128 -0.000000 0.000000 -0.000000 -15.980323 -16.512759 3.032745 30.413752 21.584424 -6.977239 20.740889 26.555928 4.943687 15.553549 24.973008 -11.291646 37.606941 -31.067580 -12.192968 -26.909438 4.695016 2.407598 0.000000 0.000000 0.000000 15.261514 3.728411 9.170024 -11.347723 -26.638165 -21.782052 -7.401297 23.949854 5.369713 0.000000 0.000000 0.000000 6.708522 1.235869 14.947280 -6.933945 4.912466 0.499923 7.701451 -4.940344 -1.594311 0.000000 0.000000 0.000000 -31.496297 -2.421526 -4.592914 0.085815 -5.249333 -3.223785 5.767754 12.083779 26.945811 0.000000 0.000000 0.000000
